/* XPM */
static char *result[] = {
/* columns rows colors chars-per-pixel */
"64 64 3 1 ",
"0 c #A2A378",
"1 c #ffffff",
"2 c #ffffff",
/* pixels */
"2222222222222222222222222222222222222222222222222222222222222222",
"2000000000000000000000000000001100000000000000000000000000000002",
"2000000000000000000000000000001100000000000000000000000000000002",
"2000000000000000000000000000001100000000000000000000000000000002",
"2000000000000000000000000000001100000000000000000000000000000002",
"2000000000000000000000000000001100000000000000000000000000000002",
"2000000000000000000000000000001100000000000000000000000000000002",
"2000000000000000000000000000001100000000000000000000000000000002",
"2000000000000000000000000000001100000000000000000000000000000002",
"2000000000000000000000000000001100000000000000000000000000000002",
"2000000000000000000000000000001100000000000000000000000000000002",
"2000000000000000000000000000001100000000000000000000000000000002",
"2000000000000000000000000000001100000000000000000000000000000002",
"2000000000000000000000000000001100000000000000000000000000000002",
"2000000000000000000000000000001100000000000000000000000000000002",
"2000000000000000000000000000001100000000000000000000000000000002",
"2000000000000000000000000000001100000000000000000000000000000002",
"2000000000000000000000000000001100000000000000000000000000000002",
"2000000000000000000000000000001100000000000000000000000000000002",
"2000000000000000000000000000001100000000000000000000000000000002",
"2000000000000000000000000000001100000000000000000000000000000002",
"2000000000000000000000000000001100000000000000000000000000000002",
"2000000000000000000000000000001100000000000000000000000000000002",
"2000000000000000000000000000001100000000000000000000000000000002",
"2000000000000000000000000000001100000000000000000000000000000002",
"2000000000000000000000000000001100000000000000000000000000000002",
"2000000000000000000000000000001100000000000000000000000000000002",
"2000000000000000000000000000001100000000000000000000000000000002",
"2000000000000000000000000000001100000000000000000000000000000002",
"2000000000000000000000000000001100000000000000000000000000000002",
"2000000000000000000000000000001100000000000000000000000000000002",
"2000000000000000000000000000001100000000000000000000000000000002",
"2000000000000000000000000000001100000000000000000000000000000002",
"2000000000000000000000000000001100000000000000000000000000000002",
"2000000000000000000000000000001100000000000000000000000000000002",
"2000000000000000000000000000001100000000000000000000000000000002",
"2000000000000000000000000110001100011000000000000000000000000002",
"2000000000000000000000000110001100011000000000000000000000000002",
"2000000000000000000000000000001100000000000000000000000000000002",
"2000000000000000000000000000001100000000000000000000000000000002",
"2000000000000000000000000000001100000000000000000000000000000002",
"2000000000000000000000000000001100000000000000000000000000000002",
"2000000000000000000000000000001100000000000000000000000000000002",
"2000000000000000000000000000001100000000000000000000000000000002",
"2000000000000000000000000000001100000000000000000000000000000002",
"2000000000000000000000000000001100000000000000000000000000000002",
"2000000000000000000000000000001100000000000000000000000000000002",
"2000000000000000000000000000001100000000000000000000000000000002",
"2000000000000000000000000000001100000000000000000000000000000002",
"2000000000000000000000000000001100000000000000000000000000000002",
"2000000000000000000000000000001100000000000000000000000000000002",
"2000000000000000000000000000001100000000000000000000000000000002",
"2000000000000000000000000000001100000000000000000000000000000002",
"2000000000000000000000000000001100000000000000000000000000000002",
"2000000000000000000000000000001100000000000000000000000000000002",
"2000000000000000000000000000001100000000000000000000000000000002",
"2000000000000000000000000000001100000000000000000000000000000002",
"2000000000000000000000000000001100000000000000000000000000000002",
"2000000000000000000000000000001100000000000000000000000000000002",
"2000000000000000000000000000001100000000000000000000000000000002",
"2000000000000000000000000000001100000000000000000000000000000002",
"2000000000000000000000000000001100000000000000000000000000000002",
"2000000000000000000000000000001100000000000000000000000000000002",
"2000000000000000000000000000001100000000000000000000000000000002",
"2222222222222222222222222222221122222222222222222222222222222222
};