/* XPM */
static char *result[] = {
/* columns rows colors chars-per-pixel */
"64 64 3 1 ",
"0 c #FFFFFF",
"1 c #FFFFFF",
"2 c #FF0000",
/* pixels */
"2222222222222222222222222222222222222222222222222222222222222222",
"2000000000000000000000000000000000000000000000000000000000000002",
"2000000000000000000000000000000000000000000000000000000000000002",
"2000000000000000000000000000000000000000000000000000000000000002",
"2000000000000000000000000000000000000000000000000000000000000002",
"2000000000000000000000000000000000000000000000000000000000000002",
"2000000000000000000000000000000000000000000000000000000000000002",
"2000000000000000000000000000000000000000000000000000000000000002",
"2000000000000000000000000000000000000000000000000000000000000002",
"2000000000000000000000000000000000000000000000000000000000000002",
"2000000000000000000000000000000000000000000000000000000000000002",
"2000000000000000000000000000000000000000000000000000000000000002",
"2000000000000000000000000000000000000000000000000000000000000002",
"2000000000000000000000000000000000000000000000000000000000000002",
"2000000000000000000000000000000000000000000000000000000000000002",
"2000000000000000000000000000000000000000000000000000000000000002",
"2000000000000000000000000000000000000000000000000000000000000002",
"2000000000000000000000000000000000000000000000000000000000000002",
"2000000000000000000000000000000000000000000000000000000000000002",
"2000000000000000000000000000000000000000000000000000000000000002",
"2000000000000000000000000000000000000000000000000000000000000002",
"2000000000000000000000000000000000000000000000000000000000000002",
"2000000000000000000000000000000000000000000000000000000000000002",
"2000000000000000000000000000000000000000000000000000000000000002",
"2000000000000000000000000000000000000000000000000000000000000002",
"2000000000000000000000000000000000000000000000000000000000000002",
"2000000000000000000000000000000000000000000000000000000000000002",
"2000000000000000000000000000000000000000000000000000000000000002",
"2000000000000000000000000000000000000000000000000000000000000002",
"2000000000000000000000000000000000000000000000000000000000000002",
"2000000000000000000000000000000000000000000000000000000000000002",
"2000000000000000000000000000000000000000000000000000000000000002",
"2000000000000000000000000000000000000000000000000000000000000002",
"2000000000000000000000000000000000000000000000000000000000000002",
"2000000000000000000000000000000000000000000000000000000000000002",
"2000000000000000000000000000000000000000000000000000000000000002",
"2000000000000000000000000000000000000000000000000000000000000002",
"2000000000000000000000000000000000000000000000000000000000000002",
"2000000000000000000000000000000000000000000000000000000000000002",
"2000000000000000000000000000000000000000000000000000000000000002",
"2000000000000000000000000000000000000000000000000000000000000002",
"2000000000000000000000000000000000000000000000000000000000000002",
"2000000000000000000000000000000000000000000000000000000000000002",
"2000000000000000000000000000000000000000000000000000000000000002",
"2000000000000000000000000000000000000000000000000000000000000002",
"2000000000000000000000000000000000000000000000000000000000000002",
"2000000000000000000000000000000000000000000000000000000000000002",
"2000000000000000000000000000000000000000000000000000000000000002",
"2000000000000000000000000000000000000000000000000000000000000002",
"2000000000000000000000000000000000000000000000000000000000000002",
"2000000000000000000000000000000000000000000000000000000000000002",
"2000000000000000000000000000000000000000000000000000000000000002",
"2000000000000000000000000000000000000000000000000000000000000002",
"2000000000000000000000000000000000000000000000000000000000000002",
"2000000000000000000000000000000000000000000000000000000000000002",
"2000000000000000000000000000000000000000000000000000000000000002",
"2000000000000000000000000000000000000000000000000000000000000002",
"2000000000000000000000000000000000000000000000000000000000000002",
"2000000000000000000000000000000000000000000000000000000000000002",
"2000000000000000000000000000000000000000000000000000000000000002",
"2000000000000000000000000000000000000000000000000000000000000002",
"2000000000000000000000000000000000000000000000000000000000000002",
"2000000000000000000000000000000000000000000000000000000000000002",
"2000000000000000000000000000000000000000000000000000000000000002",
"2222222222222222222222222222222222222222222222222222222222222222
};