/* XPM */
static char *result[] = {
/* columns rows colors chars-per-pixel */
"64 64 3 1 ",
"0 c #A52A2A",
"1 c #FFFFFF",
"2 c #FF0000",
/* pixels */
"2222222222222222222222222222222222222222222222222222222222222222",
"2000000000000000000000000000000000000000000000000000000000000002",
"2000000000000000000000000000000000000000000000000000000000000002",
"2000000000000000000000000000000000000000000000000000000000000002",
"2000000000000000000000000000000000000000000000000000000000000002",
"2000000000011111111111111111111111111111111111111000000000000002",
"2000000000011111111111111111111111111111111111111000000000000002",
"2000000000011111111111111111111111111111111111111000000000000002",
"2000000000011111111111111111111111111111111111111000000000000002",
"2000000000011111111111111111111111111111111111111000000000000002",
"2000000000011111111111111111111111111111111111111000000000000002",
"2000000000011111111111111111111111111111111111111000000000000002",
"2000000000011111111111111000000000000000000000000000000000000002",
"2000000000011111111111111000000000000000000000000000000000000002",
"2000000000011111111111111000000000000000000000000000000000000002",
"2000000000011111111111111000000000000000000000000000000000000002",
"2000000000011111111111111000000000000000000000000000000000000002",
"2000000000011111111111111000000000000000000000000000000000000002",
"2000000000011111111111111111111111111111111111111000000000000002",
"2000000000011111111111111111111111111111111111111000000000000002",
"2000000000011111111111111111111111111111111111111000000000000002",
"2000000000011111111111111111111111111111111111111000000000000002",
"2000000000011111111111111111111111111111111111111000000000000002",
"2000000000011111111111111111111111111111111111111000000000000002",
"2000000000011111111111111111111111111111111111111000000000000002",
"2000000000000000000000000000000000000000000000000000000000000002",
"2000000000000000000000000000000000000000000000000000000000000002",
"2000000000000000000000000000000000000000000000000000000000000002",
"2000000000000000000000111111111111111100000000000000000000000002",
"2000000000000000000000111111111111111100000000000000000000000002",
"2000000000000000000000111111111111111100000000000000000000000002",
"2000000000000000000000111111111111111100000000000000000000000002",
"2000000000000000000000111111111111111100000000000000000000000002",
"2000001111111111111111111111111111111111111111111111111100000002",
"2000001111111111111111111111111111111111111111111111111100000002",
"2000001111111111111111111111111111111111111111111111111100000002",
"2000001111111111111111111111111111111111111111111111111100000002",
"2000001111111111111111111111111111111111111111111111111100000002",
"2000001111111111111111111111111111111111111111111111111100000002",
"2000000000000000000000000000000000000000000000000000000000000002",
"2000000000000000000000000000000000000000000000000000000000000002",
"2000000000000000000000000000000000000000000000000000000000000002",
"2000000000000000000000011111111111110000000000000000000000000002",
"2000000000000000000001111111111111111100000000000000000000000002",
"2000000000000000001111111111111111111111100000000000000000000002",
"2000000000000000111111111111111111111111111000000000000000000002",
"2000000000000011111111111110000011111111111110000000000000000002",
"2000000000001111111111111000000000111111111111100000000000000002",
"2000000000011111111111100000000000001111111111110000000000000002",
"2000000000011111111110000000000000000011111111110000000000000002",
"2000000000011111111100000000000000000001111111110000000000000002",
"2000000000011111111100000000000000000001111111110000000000000002",
"2000000000011111111110000000000000000011111111110000000000000002",
"2000000000011111111111100000000000001111111111110000000000000002",
"2000000000001111111111111000000000111111111111100000000000000002",
"2000000000000011111111111110000011111111111110000000000000000002",
"2000000000000000111111111111111111111111111100000000000000000002",
"2000000000000000001111111111111111111111110000000000000000000002",
"2000000000000000000001111111111111111110000000000000000000000002",
"2000000000000000000000011111111111111000000000000000000000000002",
"2000000000000000000000000000000000000000000000000000000000000002",
"2000000000000000000000000000000000000000000000000000000000000002",
"2000000000000000000000000000000000000000000000000000000000000002",
"2000000000000000000000000000000000000000000000000000000000000002",
"2222222222222222222222222222222222222222222222222222222222222222
};