/* XPM */
static char *result[] = {
/* columns rows colors chars-per-pixel */
"64 64 3 1 ",
"  c #29252D",
". c #99A98F",
"0 c #FFFFFF",
/* pixels */
"0000000000000000000000000000000000000000000000000000000000000000",
"0..............................................................0",
"0..............................................................0",
"0..............................................................0",
"0..............................................................0",
"0..............................................................0",
"0..............................................................0",
"0..............................................................0",
"0..............................................................0",
"0..............................................................0",
"0..............................................................0",
"0..............................................................0",
"0..............................................................0",
"0..............................................................0",
"0..............................................................0",
"0..............................................................0",
"0..............................................................0",
"0..............................................................0",
"0..............................................................0",
"0..............................................................0",
"0..............................................................0",
"0..............................................................0",
"0..............................................................0",
"0..............................................................0",
"0..............................................................0",
"0..............................................................0",
"0..............................................................0",
"0..............................................................0",
"0..............................................................0",
"0..............................................................0",
"0..............................................................0",
"0..............................................................0",
"0..............................................................0",
"0..............................................................0",
"0..............................................................0",
"0..............................................................0",
"0..............................................................0",
"0..............................................................0",
"0..............................................................0",
"0..............................................................0",
"0..............................................................0",
"0..............................................................0",
"0..............................................................0",
"0..............................................................0",
"0...    ........    ...........................................0",
"0...    ........    ...........................................0",
"0...    ..    ..    ...........................................0",
"0...    ..    ..    ...........................................0",
"0...    ..    ..    ...........................................0",
"0...    ..    ..    ...........................................0",
"0...    ..    ..    ...........................................0",
"0...    ..    ..    ...........................................0",
"0...    ..    ..    ...........................................0",
"0...    ..    ..    ...........................................0",
"0...    ..    ..    ...........................................0",
"0...    ..    ..    ...........................................0",
"0...                ...........................................0",
"0...                ...........................................0",
"0...                ...........................................0",
"0...                ...........................................0",
"0..............................................................0",
"0..............................................................0",
"0..............................................................0",
"0000000000000000000000000000000000000000000000000000000000000000"
};
