/* XPM */
static char *result[] = {
/* columns rows colors chars-per-pixel */
"64 64 3 1 ",
"0 c #4B0082",
"1 c #FFFFFF",
"2 c #FF0000",
/* pixels */
"2222222222222222222222222222222222222222222222222222222222222222",
"2000000000000000000000000000000000000000000000000000000000000002",
"2000000000000000000000000000000000000000000000000000000000000002",
"2000000000000000000000000000000000000000000000000000000000000002",
"2000000000000000000000000000000000000000000000000000000000000002",
"2000000000000000000000000000000000000000000000000000000000000002",
"2000000000000000000000000000000000000000000000000000000000000002",
"2000000000000000000000000000000000000000000000000000000000000002",
"2000000000000000000000000000000000000000000000000111111111000002",
"2000000000000000000000000000000000000000000000000111111111000002",
"2000000000000000000000000000000000000000000000000111111111000002",
"2000000000000000000000000000000000000000000000000111111111000002",
"2000000000000000000000000000000000000000000000000111111111000002",
"2000000000000000000000000000000000000000000000000111111111000002",
"2000000000000000000000000000000111111111000000000111111111000002",
"2000000000000000000000000000001111111110000000000111111111000002",
"2000000000000000000000000000011111111100000000000111111111000002",
"2000000000000000000000000000111111111000000000000111111111000002",
"2000000000000000000000000001111111110000000000000111111111000002",
"2000000000000000000000000011111111100000000000000111111111000002",
"2000000000000000000000000111111111000000000000000111111111000002",
"2000000000000000000000001111111110000000000000000111111111000002",
"2000000000000000000000011111111100000000000000000111111111000002",
"2000000000000000000000111111111000000000000000000111111111000002",
"2000000000000000000001111111110000000000000000000111111111000002",
"2000000000000000000011111111110000000011111111111111111111000002",
"2000000000000000000111111111111000000011111111111111111111000002",
"2000000000000000001111111111111100000011111111111111111111000002",
"2000000000000000011111111111111110000011111111111111111111000002",
"2000000000000000111111111111111111000000000000000111111111000002",
"2000000000000001111111110111111111100000000000000111111111000002",
"2000000000000011111111100011111111110000000000000111111111000002",
"2000000000000111111111000001111111111000000000000111111111000002",
"2000000000001111111110000000111111111100000000000111111111000002",
"2000000000011111111100000000011111111110000000000111111111000002",
"2000000000111111111000000000001111111111000000000111111111000002",
"2000000001111111110000000000000111111111100000000111111111000002",
"2000000011111111100000000000000011111111110000000111111111000002",
"2000000111111111000000000000000001111111111000000111111111000002",
"2000001111111110000000000000000000111111111100000111111111000002",
"2000011111111100000000000000000000011111111110000111111111000002",
"2000111111111000000000000000000000001111111111000111111111000002",
"2001111111110000000000000000000000000111111111100111111111000002",
"2000000000000000000000000000000000000000000000000111111111000002",
"2000000000000000000000000000000000000000000000000111111111000002",
"2000000000000000000000000000000000000000000000000111111111000002",
"2000000000000000000000000000000000000000000000000111111111000002",
"2000000000000000000000000000000000000000000000000111111111000002",
"2000000000000000000000000000000000000000000000000111111111000002",
"2000000000000000000000000000000000000000000000000111111111000002",
"2000000000000000000000000000000000000000000000000111111111000002",
"2000000000000000000000000000000000000000000000000111111111000002",
"2000000000000000000000000000000000000000000000000111111111000002",
"2000000000000000000000000000000000000000000000000111111111000002",
"2000000000000000000000000000000000000000000000000111111111000002",
"2000000000000000000000000000000000000000000000000111111111000002",
"2000000000000000000000000000000000000000000000000111111111000002",
"2000000000000000000000000000000000000000000000000000000000000002",
"2000000000000000000000000000000000000000000000000000000000000002",
"2000000000000000000000000000000000000000000000000000000000000002",
"2000000000000000000000000000000000000000000000000000000000000002",
"2000000000000000000000000000000000000000000000000000000000000002",
"2000000000000000000000000000000000000000000000000000000000000002",
"2000000000000000000000000000000000000000000000000000000000000002",
"2222222222222222222222222222222222222222222222222222222222222222
};